# xmcd CD database file
#
# Track frame offsets:
#	150
#	16752
#	30015
#	47592
#	61640
#	77237
#	95437
#	109802
#	127555
#	141185
#	164907
#	178347
#
# Disc length: 2621 seconds
#
# Revision: 0
# Processed by: cddbd v1.5.2PL0 Copyright (c) Steve Scherf et al.
# Submitted via: CDex 1.79
#
DISCID=8e0a3b0c
DTITLE=Marshall Madison - Real
DYEAR=2004
DGENRE=Country
TTITLE0=Not Pretty, But Real
TTITLE1=Truckers Anthem
TTITLE2=Jackson Mississippi
TTITLE3=Lonely Home
TTITLE4=Tear In My Ear
TTITLE5=She`ll Always Be
TTITLE6=Harry Arm
TTITLE7=Bill
TTITLE8=Take Me Away
TTITLE9=Why And How
TTITLE10=Place Of Shattered Dreams
TTITLE11=Give Up Eternity
EXTD=YEAR: 2004
EXTT0=
EXTT1=
EXTT2=
EXTT3=
EXTT4=
EXTT5=
EXTT6=
EXTT7=
EXTT8=
EXTT9=
EXTT10=
EXTT11=
PLAYORDER=
